<svg id="Layer_1" data-name="Layer 1" xmlns="http://www.w3.org/2000/svg" viewBox="0 0 365.85104 320.30363"><defs><style>.cls-1{fill:#ebf3fa;}.cls-11,.cls-2{fill:#3287ca;}.cls-10,.cls-3{fill:none;stroke-miterlimit:10;}.cls-3{stroke:#14405b;stroke-linecap:round;}.cls-4{fill:#599dd3;}.cls-5{fill:#cbcdda;}.cls-6{fill:#1d78b5;}.cls-7{fill:#14405b;}.cls-8{fill:#fff;}.cls-9{fill:#4ba1db;}.cls-10{stroke:#cbcdda;}.cls-11{font-size:6.55527px;font-family:RobotoMono-Bold, Roboto Mono;font-weight:700;}.cls-12{fill:#069aff;}</style></defs><title>computer</title><path class="cls-1" d="M195.38448,168.2166S369.73742,54.39307,485.14918,96.099c68.30033,24.68141-2.80236,130.68454,10.96234,150.861s38.92955,59.17531-7.31528,87.639c-40.21463,24.75209-157.17647,81.91176-248.23529,71.32352S239.14918,314.099,183.38448,293.599C132.618,274.9364,140.9717,194.72409,195.38448,168.2166Z" transform="translate(-149.57448 -86.91246)"/><path class="cls-2" d="M451.41026,127.43153s12.48145-19.38177,33.45056-16.65873c0,0,1.67069,20.49633-16.60181,31.88649-5.14255,3.2056-24.23936-.01173-24.23936-.01173Z" transform="translate(-149.57448 -86.91246)"/><path class="cls-3" d="M479.5498,115.513a94.93865,94.93865,0,0,1-24.41209,20.63193" transform="translate(-149.57448 -86.91246)"/><path class="cls-3" d="M472.35633,116.56257s.40848,6.44087-2.80356,9.15637" transform="translate(-149.57448 -86.91246)"/><path class="cls-3" d="M463.60511,123.32893s2.00147,5.902-1.14314,8.07119" transform="translate(-149.57448 -86.91246)"/><path class="cls-3" d="M478.56538,123.05734s-6.186-.10224-9.74732,3.30411" transform="translate(-149.57448 -86.91246)"/><path class="cls-3" d="M471.86092,130.25734a11.9034,11.9034,0,0,0-9.94922,1.5372" transform="translate(-149.57448 -86.91246)"/><path class="cls-4" d="M454.53119,139.69265s18.82136-13.31149,37.25269-2.94786c0,0-6.11165,19.63513-27.31716,23.36966-5.968,1.051-22.478-9.07122-22.478-9.07122Z" transform="translate(-149.57448 -86.91246)"/><path class="cls-3" d="M485.086,139.15618a94.93846,94.93846,0,0,1-30.3545,10.01152" transform="translate(-149.57448 -86.91246)"/><path class="cls-3" d="M478.02164,137.44087s-2.02863,6.12669-6.02287,7.44475" transform="translate(-149.57448 -86.91246)"/><path class="cls-3" d="M467.37558,140.44569s-.3497,6.22235-4.07718,7.05886" transform="translate(-149.57448 -86.91246)"/><path class="cls-3" d="M481.353,145.78573s-5.69939-2.40707-10.27581-.5788" transform="translate(-149.57448 -86.91246)"/><path class="cls-3" d="M472.44322,149.95781a11.90338,11.90338,0,0,0-9.80263-2.29311" transform="translate(-149.57448 -86.91246)"/><ellipse class="cls-5" cx="182.92552" cy="264.00627" rx="118.11765" ry="12.70588"/><polygon class="cls-6" points="218.926 254.8 146.926 254.8 157.926 213.8 206.926 213.8 218.926 254.8"/><path class="cls-7" d="M465.5,143.86281v128.85h-269v-128.85a22.154,22.154,0,0,1,22.15-22.15h224.7A22.154,22.154,0,0,1,465.5,143.86281Z" transform="translate(-149.57448 -86.91246)"/><path class="cls-8" d="M74.69023,46.80039h217.5a10.73529,10.73529,0,0,1,10.73529,10.73529V173.80039a0,0,0,0,1,0,0h-242a0,0,0,0,1,0,0V60.56509A13.76471,13.76471,0,0,1,74.69023,46.80039Z"/><path class="cls-2" d="M465.5,272.71284v5.85a22.154,22.154,0,0,1-22.15,22.15H218.65a22.154,22.154,0,0,1-22.15-22.15v-5.85Z" transform="translate(-149.57448 -86.91246)"/><circle class="cls-7" cx="181.42552" cy="199.30039" r="7.5"/><polygon class="cls-9" points="236.926 267.8 125.926 267.8 146.926 254.8 218.926 254.8 236.926 267.8"/><rect class="cls-6" x="125.92552" y="267.80039" width="111" height="3"/><rect class="cls-10" x="144.83728" y="88.41803" width="73.17647" height="60.88235" rx="6.35294"/><text class="cls-11" transform="translate(170.77849 101.34755) scale(1.3636 1)">PUMK</text><rect class="cls-12" x="172.35199" y="133.01362" width="19.14706" height="7.05147" rx="2.83088"/><path class="cls-8" d="M325.53418,224.67285v-3.24609h.77441v3.24609Z" transform="translate(-149.57448 -86.91246)"/><path class="cls-8" d="M328.294,224.708a1.7248,1.7248,0,0,1-.752-.15772,1.28515,1.28515,0,0,1-.51855-.43066,1.13292,1.13292,0,0,1,0-1.25147,1.26966,1.26966,0,0,1,.51855-.42871,1.74554,1.74554,0,0,1,.752-.15527,1.77507,1.77507,0,0,1,.75976.15527,1.2598,1.2598,0,0,1,.52149.42871,1.078,1.078,0,0,1,.18847.62793,1.06607,1.06607,0,0,1-.18847.62549,1.27853,1.27853,0,0,1-.52149.42871A1.75391,1.75391,0,0,1,328.294,224.708Zm0-.56006a.76569.76569,0,0,0,.35058-.07666.60183.60183,0,0,0,.24317-.2251.65883.65883,0,0,0,.09179-.3501.64454.64454,0,0,0-.09179-.35009.61152.61152,0,0,0-.24317-.22071.7564.7564,0,0,0-.3457-.07666.76762.76762,0,0,0-.34766.07666.59794.59794,0,0,0-.24512.22071.63618.63618,0,0,0-.09179.35009.65008.65008,0,0,0,.09179.3501.58878.58878,0,0,0,.24512.2251A.75558.75558,0,0,0,328.294,224.148Z" transform="translate(-149.57448 -86.91246)"/><path class="cls-8" d="M331.41211,224.55908a1.5476,1.5476,0,0,1-.665-.14209,1.18969,1.18969,0,0,1-.48144-.398,1.09438,1.09438,0,0,1,0-1.19873,1.17018,1.17018,0,0,1,.48144-.396,1.56823,1.56823,0,0,1,.665-.14014,1.40266,1.40266,0,0,1,.60352.12061.88238.88238,0,0,1,.39941.374,1.49745,1.49745,0,0,1,0,1.28369.89819.89819,0,0,1-.39941.374A1.38816,1.38816,0,0,1,331.41211,224.55908Zm.124.99756a3.23862,3.23862,0,0,1-.72754-.081,1.68656,1.68656,0,0,1-.583-.24268l.30761-.49463a1.33656,1.33656,0,0,0,.42969.19922,1.89632,1.89632,0,0,0,.51856.07227.902.902,0,0,0,.5957-.16211.59842.59842,0,0,0,.18945-.481v-.3501l.04883-.59472-.01465-.59961v-.50293h.73535v1.96a1.167,1.167,0,0,1-.38769.96435A1.7316,1.7316,0,0,1,331.53613,225.55664Zm.03516-1.55322a.843.843,0,0,0,.3623-.07422.60455.60455,0,0,0,.24805-.20557.55579.55579,0,0,0,0-.606.58059.58059,0,0,0-.24805-.19922.96972.96972,0,0,0-.72265,0,.59538.59538,0,0,0-.25293.19922.54586.54586,0,0,0,0,.606.61965.61965,0,0,0,.25293.20557A.8465.8465,0,0,0,331.57129,224.00342Z" transform="translate(-149.57448 -86.91246)"/><path class="cls-8" d="M334.14355,221.99121a.53861.53861,0,0,1-.35253-.10937.34034.34034,0,0,1,0-.54248.53856.53856,0,0,1,.35253-.10938.56395.56395,0,0,1,.34961.103.3177.3177,0,0,1,.13672.26465.35326.35326,0,0,1-.13379.28222A.535.535,0,0,1,334.14355,221.99121Zm-.38769,2.68164v-2.35351h.77441v2.35351Z" transform="translate(-149.57448 -86.91246)"/><path class="cls-8" d="M336.874,222.28418a1.38423,1.38423,0,0,1,.56836.11182.877.877,0,0,1,.39453.3413,1.09289,1.09289,0,0,1,.14356.58838v1.34717h-.77442v-1.24219a.48815.48815,0,0,0-.541-.55566.76113.76113,0,0,0-.33008.06982.52728.52728,0,0,0-.22851.20557.6876.6876,0,0,0-.082.35889v1.16357H335.25v-2.35351h.74023v.65185l-.13964-.19678a.93625.93625,0,0,1,.41211-.36328A1.41522,1.41522,0,0,1,336.874,222.28418Z" transform="translate(-149.57448 -86.91246)"/><rect class="cls-5" x="153.1314" y="107.77097" width="57.29412" height="5.05882" rx="2.52941"/><rect class="cls-5" x="153.27846" y="120.06877" width="57.29412" height="5.05882" rx="2.52941"/><path class="cls-2" d="M476.29412,119.8599" transform="translate(-149.57448 -86.91246)"/></svg>