<svg id="Layer_1" data-name="Layer 1" xmlns="http://www.w3.org/2000/svg" viewBox="0 0 398.08895 394.51714"><defs><style>.cls-1{fill:#ebf3fa;}.cls-2{fill:#ff6f61;stroke:#ff6f61;}.cls-2,.cls-5,.cls-6{stroke-miterlimit:10;}.cls-3{fill:#3287ca;}.cls-4{fill:#599dd3;}.cls-10,.cls-5,.cls-6{fill:none;stroke-linecap:round;}.cls-5,.cls-6{stroke:#14405b;}.cls-6{stroke-width:3px;}.cls-7{fill:#535461;}.cls-8{fill:#fff;}.cls-9{fill:#2bc159;}.cls-10{stroke:#fcfcfc;stroke-linejoin:round;stroke-width:8px;}</style></defs><title>hp</title><path class="cls-1" d="M165.62333,90.4449c4.92877-17.06853,12.20836-48.22456,48.69875-51.754s65.43158,69.066,102.84334,63.12126S436.69009,49.89393,470.10423,90.88066s7.29648,111.789,15.76707,125.09373,48,110.893,19.05883,143.79317c-40.15683,45.65-70.29664,84.80573-198.07426,70.21472C177.37644,415.19694,208.33613,355.785,192.196,318.39993s-86.08938-69.91573-73.3835-136.153C124.96137,150.192,152.647,135.38259,165.62333,90.4449Z" transform="translate(-117.27886 -38.56621)"/><path class="cls-2" d="M227.797,85.3021s27.67673,3.65066,32.48093-4.72829C260.278,80.57381,260.87385,64.16119,227.797,85.3021Z" transform="translate(-117.27886 -38.56621)"/><path class="cls-2" d="M226.49228,87.32725s-5.6911-27.33019,2.3089-32.742C228.80118,54.58529,245.12455,52.7751,226.49228,87.32725Z" transform="translate(-117.27886 -38.56621)"/><path class="cls-3" d="M386.12284,371.01347s6.65568-20.61319,29.8181-32.8284,35.72813-15.2087,46.16566-32.2c2.52941-4.11765,21.15293,25.00933-.6171,42.88833s-62.30808,43.51411-62.30808,43.51411l-17.90891,10.69093Z" transform="translate(-117.27886 -38.56621)"/><path class="cls-4" d="M365.04256,424.458s6.28532-11.27988,22.94579-31.30149c27.95259-33.59186,57.83085-24.81217,83.57491-45.42535,0,0,7.462,57.25884-59.32326,69.85578-63.963,12.0646-51.115,11.45177-51.115,11.45177Z" transform="translate(-117.27886 -38.56621)"/><path class="cls-5" d="M450.81248,377.04387S422.553,403.41343,375.5827,414.15658" transform="translate(-117.27886 -38.56621)"/><path class="cls-5" d="M461.28307,324.338s-4.11765,17.59362-40.08862,32.66943c-25.1214,10.52864-34.41869,28.79791-34.41869,28.79791" transform="translate(-117.27886 -38.56621)"/><path class="cls-5" d="M440.34189,372.92623s1.17521,9.87585-.73592,12.8791" transform="translate(-117.27886 -38.56621)"/><path class="cls-5" d="M444.85805,381.95463s10.30737,1.96958,14.89561,0" transform="translate(-117.27886 -38.56621)"/><path class="cls-5" d="M431.12977,391.37583a47.812,47.812,0,0,0,15.38859,1.49157" transform="translate(-117.27886 -38.56621)"/><path class="cls-5" d="M421.81248,380.6027s3.16079,10.633,1.00687,15.59589" transform="translate(-117.27886 -38.56621)"/><path class="cls-5" d="M431.12977,404.338a49.41409,49.41409,0,0,1-16.87857-3.745" transform="translate(-117.27886 -38.56621)"/><path class="cls-5" d="M405.31248,390.04387a18.95136,18.95136,0,0,1-.33114,14.69955" transform="translate(-117.27886 -38.56621)"/><path class="cls-5" d="M464.57719,332.338s-5.92.643-9.85569,3.44572" transform="translate(-117.27886 -38.56621)"/><path class="cls-5" d="M458.34189,343.74976" transform="translate(-117.27886 -38.56621)"/><path class="cls-5" d="M444.85805,343.78151a22.814,22.814,0,0,1,12.30737.67413" transform="translate(-117.27886 -38.56621)"/><path class="cls-5" d="M431.12977,352.39191s11.03565-3.05392,16.03565.06373" transform="translate(-117.27886 -38.56621)"/><path class="cls-5" d="M452.30585,326.8674s1.19864,7.44373-1.765,12.72187" transform="translate(-117.27886 -38.56621)"/><path class="cls-5" d="M438.82406,336.13211s1.98949,7.051-.18752,11.599" transform="translate(-117.27886 -38.56621)"/><path class="cls-5" d="M424.81248,343.85079a20.26631,20.26631,0,0,1-1.60936,12.17949" transform="translate(-117.27886 -38.56621)"/><path class="cls-5" d="M431.12977,362.16152s-8.2128-3.55907-16.611-1.99808" transform="translate(-117.27886 -38.56621)"/><path class="cls-5" d="M406.19483,352.45564s2.59494,9.19678-.379,13.06466" transform="translate(-117.27886 -38.56621)"/><path class="cls-2" d="M459.97356,198.68829s-4.11375-12.06825-9.96686-8.76288S459.97356,198.68829,459.97356,198.68829Z" transform="translate(-117.27886 -38.56621)"/><path class="cls-2" d="M474.96407,191.51559c5.79505,4.44263-12.17958,6.66107-12.17958,6.66107s6.38453-11.10371,12.17958-6.66107" transform="translate(-117.27886 -38.56621)"/><path class="cls-2" d="M458.56685,210.71229s-5.53479-11.48615-10.94806-7.50109S458.56685,210.71229,458.56685,210.71229Z" transform="translate(-117.27886 -38.56621)"/><path class="cls-2" d="M473.6751,204.28451c5.59665,4.6901-12.45736,6.12588-12.45736,6.12588s6.8607-10.816,12.45736-6.12588" transform="translate(-117.27886 -38.56621)"/><path class="cls-2" d="M457.508,223.89278s-5.53478-11.48615-10.948-7.50108S457.508,223.89278,457.508,223.89278Z" transform="translate(-117.27886 -38.56621)"/><path class="cls-2" d="M471.91039,215.99141c5.59666,4.6901-12.45735,6.12588-12.45735,6.12588s6.8607-10.816,12.45735-6.12588" transform="translate(-117.27886 -38.56621)"/><path class="cls-2" d="M454.15508,237.07328s-5.53478-11.48615-10.94805-7.50109S454.15508,237.07328,454.15508,237.07328Z" transform="translate(-117.27886 -38.56621)"/><path class="cls-2" d="M469.028,226.7768c5.59665,4.6901-12.45736,6.12588-12.45736,6.12588s6.8607-10.816,12.45736-6.12588" transform="translate(-117.27886 -38.56621)"/><path class="cls-2" d="M466.56354,239.80352c4.10677,6.03771-13.65523,2.49937-13.65523,2.49937s9.54845-8.53708,13.65523-2.49937" transform="translate(-117.27886 -38.56621)"/><path class="cls-2" d="M450.3561,246.69568s-5.49329-11.50605-10.92091-7.54055S450.3561,246.69568,450.3561,246.69568Z" transform="translate(-117.27886 -38.56621)"/><path class="cls-2" d="M463.08842,250.09933c4.11336,6.03323-13.65249,2.51426-13.65249,2.51426s9.53913-8.54749,13.65249-2.51426" transform="translate(-117.27886 -38.56621)"/><path class="cls-2" d="M458.19627,263.13216c3.35456,6.48587-13.85622.84691-13.85622.84691s10.50167-7.33278,13.85622-.84691" transform="translate(-117.27886 -38.56621)"/><path class="cls-2" d="M446.52073,258.23318S442.2,246.23748,436.40461,249.643,446.52073,258.23318,446.52073,258.23318Z" transform="translate(-117.27886 -38.56621)"/><path class="cls-2" d="M453.27523,273.91809c3.06636,6.627-13.88005.2373-13.88005.2373s10.8137-6.8643,13.88005-.2373" transform="translate(-117.27886 -38.56621)"/><path class="cls-2" d="M441.759,269.23252s-4.32074-11.99569-10.11612-8.59014S441.759,269.23252,441.759,269.23252Z" transform="translate(-117.27886 -38.56621)"/><path class="cls-2" d="M435.14772,279.2797s-2.00517-12.59146-8.33446-10.32778S435.14772,279.2797,435.14772,279.2797Z" transform="translate(-117.27886 -38.56621)"/><path class="cls-2" d="M448.51354,284.40375c3.06636,6.627-13.88.23731-13.88.23731s10.8137-6.8643,13.88-.23731" transform="translate(-117.27886 -38.56621)"/><path class="cls-2" d="M430.11249,287.0097s-4.51318-11.92462-10.253-8.42627S430.11249,287.0097,430.11249,287.0097Z" transform="translate(-117.27886 -38.56621)"/><path class="cls-2" d="M442.82025,294.00905c3.06636,6.627-13.88.23731-13.88.23731s10.8137-6.8643,13.88-.23731" transform="translate(-117.27886 -38.56621)"/><path class="cls-2" d="M423.67029,297.83878s-2.70737-12.45936-8.89992-9.84468S423.67029,297.83878,423.67029,297.83878Z" transform="translate(-117.27886 -38.56621)"/><path class="cls-2" d="M437.1402,302.62451c2.94838,6.68031-13.88208-.0088-13.88208-.0088s10.93369-6.67151,13.88208.0088" transform="translate(-117.27886 -38.56621)"/><path class="cls-2" d="M416.92112,307.22253s-2.70737-12.45936-8.89992-9.84468S416.92112,307.22253,416.92112,307.22253Z" transform="translate(-117.27886 -38.56621)"/><path class="cls-2" d="M430.438,311.95564c2.94839,6.68031-13.88208-.0088-13.88208-.0088s10.93369-6.67151,13.88208.0088" transform="translate(-117.27886 -38.56621)"/><path class="cls-2" d="M410.01155,314.92239s-2.70737-12.45936-8.89992-9.84468S410.01155,314.92239,410.01155,314.92239Z" transform="translate(-117.27886 -38.56621)"/><path class="cls-2" d="M422.70867,321.37124c2.94839,6.68032-13.88207-.0088-13.88207-.0088s10.93368-6.67151,13.88207.0088" transform="translate(-117.27886 -38.56621)"/><path class="cls-2" d="M403.79215,323.5026s-2.70737-12.45936-8.89992-9.84468S403.79215,323.5026,403.79215,323.5026Z" transform="translate(-117.27886 -38.56621)"/><path class="cls-2" d="M412.58356,331.329c2.94839,6.68031-13.88207-.0088-13.88207-.0088s10.93368-6.67151,13.88207.0088" transform="translate(-117.27886 -38.56621)"/><path class="cls-2" d="M460.792,178.94188s-4.11376-12.06824-9.96686-8.76288S460.792,178.94188,460.792,178.94188Z" transform="translate(-117.27886 -38.56621)"/><path class="cls-2" d="M473.39732,172.64969c5.79505,4.44263-12.17958,6.66107-12.17958,6.66107s6.38454-11.10371,12.17958-6.66107" transform="translate(-117.27886 -38.56621)"/><path class="cls-2" d="M475.61858,180.61079c5.795,4.44264-12.17959,6.66107-12.17959,6.66107s6.38454-11.1037,12.17959-6.66107" transform="translate(-117.27886 -38.56621)"/><path class="cls-2" d="M460.792,188.08479s-4.11376-12.06824-9.96686-8.76288S460.792,188.08479,460.792,188.08479Z" transform="translate(-117.27886 -38.56621)"/><path class="cls-6" d="M461.28307,179.56162s11.17647,75.65872-67.88236,156.57049" transform="translate(-117.27886 -38.56621)"/><path class="cls-2" d="M202.38593,107.25979s-5.6911-27.3302,2.3089-32.742C204.69483,74.51783,221.0182,72.70763,202.38593,107.25979Z" transform="translate(-117.27886 -38.56621)"/><path class="cls-2" d="M188.04933,126.87325s-11.02172-25.64858-4.26021-32.54562C183.78912,94.32763,199.42466,89.30179,188.04933,126.87325Z" transform="translate(-117.27886 -38.56621)"/><path class="cls-2" d="M178.56649,150.44228s-16.93844-22.19048-12.061-30.527C166.50547,119.91526,180.44541,111.23153,178.56649,150.44228Z" transform="translate(-117.27886 -38.56621)"/><path class="cls-2" d="M175.19563,175.45564s-23.03874-15.76531-21.01919-25.21034C154.17644,150.2453,164.69332,137.63085,175.19563,175.45564Z" transform="translate(-117.27886 -38.56621)"/><path class="cls-2" d="M176.5997,200.17666s-24.78617-12.84423-23.93112-22.46483C152.66858,177.71183,161.57206,163.9112,176.5997,200.17666Z" transform="translate(-117.27886 -38.56621)"/><path class="cls-2" d="M183.42882,221.88824s-27.76991-2.8566-30.50357-12.1202C152.92525,209.768,156.14561,193.66343,183.42882,221.88824Z" transform="translate(-117.27886 -38.56621)"/><path class="cls-2" d="M191.0254,242.43735s-27.8933,1.13682-31.92134-7.64168C159.10406,234.79567,159.9925,218.39628,191.0254,242.43735Z" transform="translate(-117.27886 -38.56621)"/><path class="cls-2" d="M201.98056,260.46211s-27.61874,4.06615-32.54831-4.23966C169.43225,256.22245,168.5898,239.82064,201.98056,260.46211Z" transform="translate(-117.27886 -38.56621)"/><path class="cls-2" d="M218.25568,279.434s-27.61873,4.06616-32.54831-4.23966C185.70737,275.19429,184.86492,258.79248,218.25568,279.434Z" transform="translate(-117.27886 -38.56621)"/><path class="cls-2" d="M210.33743,101.24546s27.67673,3.65066,32.48093-4.72829C242.81836,96.51717,243.41424,80.10455,210.33743,101.24546Z" transform="translate(-117.27886 -38.56621)"/><path class="cls-2" d="M198.08126,118.81085s27.67672,3.65066,32.48092-4.7283C230.56218,114.08255,231.15806,97.66993,198.08126,118.81085Z" transform="translate(-117.27886 -38.56621)"/><path class="cls-2" d="M186.84481,139.54787s27.67673,3.65066,32.48093-4.72829C219.32574,134.81958,219.92162,118.407,186.84481,139.54787Z" transform="translate(-117.27886 -38.56621)"/><path class="cls-2" d="M180.38161,160.74308s27.91483.30111,31.67822-8.59407C212.05983,152.149,210.68073,135.78358,180.38161,160.74308Z" transform="translate(-117.27886 -38.56621)"/><path class="cls-2" d="M178.70895,182.24688s27.90144-.91523,31.27376-9.9659C209.98271,172.281,207.892,155.99116,178.70895,182.24688Z" transform="translate(-117.27886 -38.56621)"/><path class="cls-2" d="M184.05084,207.33633s27.63776-3.93472,30.009-13.29765C214.05983,194.03868,210.21541,178.07154,184.05084,207.33633Z" transform="translate(-117.27886 -38.56621)"/><path class="cls-2" d="M190.97606,226.98161s27.63777-3.93472,30.009-13.29765C220.98505,213.684,217.14063,197.71681,190.97606,226.98161Z" transform="translate(-117.27886 -38.56621)"/><path class="cls-2" d="M200.951,247.33494s27.63776-3.93472,30.009-13.29765C230.96,234.03729,227.11559,218.07015,200.951,247.33494Z" transform="translate(-117.27886 -38.56621)"/><path class="cls-2" d="M211.082,263.6441s27.63777-3.93472,30.009-13.29765C241.091,250.34645,237.24655,234.3793,211.082,263.6441Z" transform="translate(-117.27886 -38.56621)"/><path class="cls-6" d="M230.34189,83.51446S157.989,130.69908,180.22424,206.75791,258.16341,315.433,264.01735,313.29726" transform="translate(-117.27886 -38.56621)"/><rect class="cls-7" x="102.0476" y="79.41079" width="175.05882" height="312.00528" rx="15.17911"/><rect class="cls-8" x="110.51818" y="87.06068" width="159.52941" height="297.29656" rx="12.70852"/><path class="cls-7" d="M325.62057,136.74434h-41.7647a4.5294,4.5294,0,0,1-4.52941-4.52941l-.30883-4.43015-4.98529-3.54044c0-.12995,5.39946-.44117,5.52941-.44117l53.58824-.05776a9.08939,9.08939,0,0,1,1.85294,1.20482l-3.10367,2.37948-1.27869,4.41463A5,5,0,0,1,325.62057,136.74434Z" transform="translate(-117.27886 -38.56621)"/><rect class="cls-8" x="155.68363" y="87.23451" width="6.35294" height="10.32353" rx="2.82353"/><rect class="cls-8" x="213.38583" y="87.23451" width="6.35294" height="10.32353" rx="2.82353"/><circle class="cls-9" cx="189.57701" cy="233.00166" r="57.79228"/><polyline class="cls-10" points="153.224 233.649 186.989 254.825 230.401 210.002"/></svg>